<svg width="20" height="20" viewBox="0 0 20 20" fill="none" xmlns="http://www.w3.org/2000/svg">
<g clip-path="url(#clip0_202_962)">
<path d="M10.0222 1.16976L10.4178 0.682002C10.1901 0.475791 9.85419 0.475791 9.62652 0.682002L10.0222 1.16976ZM1.51124 8.8788L1.11561 8.39104L0.90332 8.58333V8.8788H1.51124ZM7.59047 19.1575V19.7999C7.92621 19.7999 8.19839 19.5123 8.19839 19.1575H7.59047ZM12.4539 19.1575H11.8459C11.8459 19.5123 12.1181 19.7999 12.4539 19.7999V19.1575ZM18.5331 8.8788H19.141V8.58333L18.9287 8.39104L18.5331 8.8788ZM2.72709 19.7999H7.59047V18.5151H2.72709V19.7999ZM18.9287 8.39104L10.4178 0.682002L9.62652 1.65752L18.1374 9.36656L18.9287 8.39104ZM9.62652 0.682002L1.11561 8.39104L1.90687 9.36656L10.4178 1.65752L9.62652 0.682002ZM8.19839 19.1575V15.303H6.98255V19.1575H8.19839ZM11.8459 15.303V19.1575H13.0618V15.303H11.8459ZM12.4539 19.7999H17.3172V18.5151H12.4539V19.7999ZM19.141 17.8727V8.8788H17.9252V17.8727H19.141ZM0.90332 8.8788V17.8727H2.11917V8.8788H0.90332ZM10.0222 13.3757C11.0294 13.3757 11.8459 14.2386 11.8459 15.303H13.0618C13.0618 13.529 11.7009 12.0909 10.0222 12.0909V13.3757ZM10.0222 12.0909C8.34343 12.0909 6.98255 13.529 6.98255 15.303H8.19839C8.19839 14.2386 9.01492 13.3757 10.0222 13.3757V12.0909ZM17.3172 19.7999C18.3244 19.7999 19.141 18.937 19.141 17.8727H17.9252C17.9252 18.2274 17.6529 18.5151 17.3172 18.5151V19.7999ZM2.72709 18.5151C2.39134 18.5151 2.11917 18.2274 2.11917 17.8727H0.90332C0.90332 18.937 1.71985 19.7999 2.72709 19.7999V18.5151Z" fill="white"/>
</g>
<defs>
<clipPath id="clip0_202_962">
<rect width="18.2377" height="19.2726" fill="white" transform="translate(0.90332 0.527344)"/>
</clipPath>
</defs>
</svg>
