<svg width="49" height="35" viewBox="0 0 49 35" fill="none" xmlns="http://www.w3.org/2000/svg">
<path d="M38.794 13.6738C38.794 20.6535 33.0086 26.3476 25.8272 26.3476C18.6457 26.3476 12.8604 20.6535 12.8604 13.6738C12.8604 6.69414 18.6457 1 25.8272 1C33.0086 1 38.794 6.69414 38.794 13.6738Z" stroke="#0F1112" stroke-width="2"/>
<line y1="-1" x2="15.7655" y2="-1" transform="matrix(0.736866 0.676039 -0.691473 0.722402 35.5398 23.9167)" stroke="#0F1112" stroke-width="2"/>
<line x1="2.77563" y1="22.7893" x2="2.77563" y2="33.4245" stroke="#0F1112" stroke-width="2"/>
<line x1="5.87915" y1="21.27" x2="5.87915" y2="33.4245" stroke="#0F1112" stroke-width="2"/>
<line x1="8.98071" y1="18.2312" x2="8.98071" y2="33.4243" stroke="#0F1112" stroke-width="2"/>
<line x1="12.8604" y1="22.0303" x2="12.8604" y2="33.4251" stroke="#0F1112" stroke-width="2"/>
<line x1="15.9641" y1="25.0679" x2="15.9641" y2="33.4241" stroke="#0F1112" stroke-width="2"/>
<line x1="36.1406" y1="26.5872" x2="36.1406" y2="33.4241" stroke="#0F1112" stroke-width="2"/>
<line x1="46.2251" y1="5.31714" x2="46.2251" y2="29.6261" stroke="#0F1112" stroke-width="2"/>
<line x1="43.1223" y1="6.83643" x2="43.1223" y2="26.5875" stroke="#0F1112" stroke-width="2"/>
<line x1="19.0686" y1="27.3474" x2="19.0686" y2="33.4247" stroke="#0F1112" stroke-width="2"/>
<line x1="22.9485" y1="28.8667" x2="22.9485" y2="33.4246" stroke="#0F1112" stroke-width="2"/>
<line x1="26.0522" y1="18.9917" x2="26.0522" y2="25.069" stroke="#0F1112" stroke-width="2"/>
<line x1="22.9485" y1="20.511" x2="22.9485" y2="24.3093" stroke="#0F1112" stroke-width="2"/>
<line x1="19.0686" y1="18.9917" x2="19.0686" y2="22.0303" stroke="#0F1112" stroke-width="2"/>
<line x1="15.9641" y1="15.9529" x2="15.9641" y2="18.9915" stroke="#0F1112" stroke-width="2"/>
<line x1="26.0522" y1="30.3862" x2="26.0522" y2="33.4249" stroke="#0F1112" stroke-width="2"/>
<line x1="39.2451" y1="28.8667" x2="39.2451" y2="33.4246" stroke="#0F1112" stroke-width="2"/>
<line x1="39.2451" y1="20.511" x2="39.2451" y2="23.5496" stroke="#0F1112" stroke-width="2"/>
<line x1="43.1223" y1="31.9055" x2="43.1223" y2="33.4248" stroke="#0F1112" stroke-width="2"/>
<line x1="29.1562" y1="28.8667" x2="29.1562" y2="33.4246" stroke="#0F1112" stroke-width="2"/>
<line x1="33.0366" y1="27.3474" x2="33.0366" y2="33.4247" stroke="#0F1112" stroke-width="2"/>
<line x1="36.1406" y1="10.6343" x2="36.1406" y2="18.2308" stroke="#0F1112" stroke-width="2"/>
<line x1="33.0366" y1="12.9141" x2="33.0366" y2="22.0299" stroke="#0F1112" stroke-width="2"/>
<line x1="29.1562" y1="15.1924" x2="29.1562" y2="24.3083" stroke="#0F1112" stroke-width="2"/>
<ellipse cx="2.55186" cy="18.9915" rx="1.55186" ry="1.51931" fill="#0F1112"/>
<ellipse cx="23.5004" cy="17.4722" rx="1.55186" ry="1.51931" fill="#0F1112"/>
<ellipse cx="32.8124" cy="9.87527" rx="1.55186" ry="1.51931" fill="#0F1112"/>
<ellipse cx="45.2252" cy="1.51931" rx="1.55186" ry="1.51931" fill="#0F1112"/>
<line y1="-1" x2="12.4659" y2="-1" transform="matrix(0.883152 -0.469087 0.484707 0.874676 1.81323 19.833)" stroke="#0F1112" stroke-width="2"/>
<line y1="-1" x2="10.3184" y2="-1" transform="matrix(0.76639 -0.642375 0.658285 0.752769 24.7539 17.3818)" stroke="#0F1112" stroke-width="2"/>
<line x1="1" y1="-1" x2="9.37624" y2="-1" transform="matrix(0.921117 0.389285 -0.403449 0.915002 13.6582 13.8413)" stroke="#0F1112" stroke-width="2" stroke-linecap="round"/>
<line y1="-1" x2="14.2306" y2="-1" transform="matrix(0.829292 -0.558815 0.575125 0.818066 33.4246 10.2312)" stroke="#0F1112" stroke-width="2"/>
</svg>
