<svg width="25" height="26" viewBox="0 0 25 26" fill="none" xmlns="http://www.w3.org/2000/svg">
<path d="M1.74684 1.27186C1.74684 1.01914 1.65482 0.776767 1.49102 0.598065C1.32722 0.419363 1.10506 0.31897 0.873418 0.31897C0.641773 0.31897 0.419616 0.419363 0.255818 0.598065C0.0920206 0.776767 3.45178e-09 1.01914 0 1.27186V24.7765C0 25.3025 0.391291 25.7294 0.873418 25.7294H22.1266C22.3582 25.7294 22.5804 25.629 22.7442 25.4503C22.908 25.2716 23 25.0292 23 24.7765C23 24.5238 22.908 24.2814 22.7442 24.1027C22.5804 23.924 22.3582 23.8236 22.1266 23.8236H1.74684V1.27186Z" fill="white"/>
<path d="M24.7652 8.21729C24.9197 8.04299 25.0039 7.81246 24.9999 7.57426C24.9959 7.33605 24.904 7.10878 24.7437 6.94032C24.5834 6.77186 24.3671 6.67537 24.1404 6.67116C23.9138 6.66696 23.6944 6.75538 23.5285 6.91779L16.8552 13.9302L12.5152 9.36968C12.3511 9.19749 12.1287 9.10078 11.8968 9.10078C11.665 9.10078 11.4426 9.19749 11.2785 9.36968L4.27849 16.7253C4.19252 16.8095 4.12357 16.911 4.07575 17.0238C4.02792 17.1366 4.00221 17.2583 4.00014 17.3818C3.99806 17.5052 4.01968 17.6279 4.06368 17.7424C4.10769 17.8569 4.17319 17.9609 4.25628 18.0482C4.33937 18.1355 4.43834 18.2043 4.5473 18.2505C4.65625 18.2968 4.77295 18.3195 4.89044 18.3173C5.00792 18.3151 5.12379 18.2881 5.23112 18.2379C5.33845 18.1876 5.43505 18.1152 5.51516 18.0248L11.8968 11.3189L16.2368 15.8794C16.4009 16.0516 16.6233 16.1483 16.8552 16.1483C17.087 16.1483 17.3094 16.0516 17.4735 15.8794L24.7652 8.21729Z" fill="white"/>
</svg>
