<svg width="32" height="26" viewBox="0 0 32 26" fill="none" xmlns="http://www.w3.org/2000/svg">
<path d="M25.4705 10.82C26.5275 10.391 27.3905 9.43838 27.6999 8.13066L25.4705 10.82ZM25.4705 10.82C25.8898 9.64372 26.1146 8.37236 26.1146 7.05213C26.1146 5.69261 25.8756 4.38303 25.4322 3.17502C27.0531 3.84847 28.2504 5.79339 27.7001 8.12977L25.4705 10.82ZM6.50318 3.17424C6.05968 4.38243 5.82053 5.69223 5.82053 7.05199C5.82053 8.37222 6.04534 9.64358 6.46468 10.8199C5.40751 10.3908 4.54446 9.43801 4.23517 8.13004L6.50318 3.17424ZM6.50318 3.17424C4.88153 3.84712 3.68357 5.79262 4.23507 8.12963L6.50318 3.17424ZM3.74989 16.6326C3.81535 16.6155 3.89618 16.597 3.99057 16.5777C3.3659 17.5216 2.86975 18.6962 2.73037 20.126C2.71162 20.1177 2.6929 20.1092 2.67424 20.1006C2.10138 19.8352 1.78163 19.5308 1.65678 19.2392L1.65174 19.2274L1.6465 19.2157C1.45117 18.7801 1.45117 18.2699 1.6465 17.8343L1.6502 17.8261L1.6538 17.8178C1.81467 17.4471 2.30559 16.9412 3.68171 16.6488L3.71599 16.6415L3.74989 16.6326ZM29.2041 20.1261C29.0647 18.6965 28.5688 17.5219 27.9445 16.5781C28.0375 16.5973 28.117 16.6156 28.1815 16.6326L28.2176 16.6421L28.254 16.6499C29.63 16.941 30.1214 17.4472 30.282 17.8172L30.2852 17.8246L30.2885 17.832C30.4838 18.2689 30.4833 18.7817 30.2889 19.2161L30.2839 19.2273L30.279 19.2386C30.1542 19.5303 29.8344 19.8347 29.2616 20.1C29.2425 20.1088 29.2233 20.1175 29.2041 20.1261ZM15.8934 18.2871C18.3458 18.2871 20.427 18.5031 21.8472 19.0402C22.5433 19.3035 22.9839 19.6088 23.2439 19.9133C23.4793 20.189 23.6269 20.5308 23.6269 21.0383C23.6269 21.548 23.4793 21.8936 23.2433 22.1725C22.9835 22.4795 22.5443 22.7871 21.851 23.053C20.436 23.5957 18.3566 23.819 15.8934 23.819C13.441 23.819 11.3598 23.603 9.93952 23.066C9.24341 22.8028 8.80281 22.4976 8.54279 22.1932C8.30741 21.9177 8.16 21.5762 8.16 21.0692C8.16 20.559 8.3077 20.213 8.54376 19.9339C8.80352 19.6268 9.24276 19.3191 9.93598 19.0532C11.3509 18.5104 13.4303 18.2871 15.8934 18.2871ZM15.8934 1.81897C18.3467 1.81897 20.5036 3.97468 20.5036 6.9328C20.5036 9.89016 18.3461 12.048 15.8934 12.048C13.4408 12.048 11.2833 9.89016 11.2833 6.9328C11.2833 3.97468 13.4402 1.81897 15.8934 1.81897Z" stroke="white" stroke-width="3"/>
</svg>
