<svg width="133" height="20" viewBox="0 0 133 20" fill="none" xmlns="http://www.w3.org/2000/svg">
<ellipse cx="5.43288" cy="4.21992" rx="5.43288" ry="4.21992" fill="#012E88"/>
<path d="M121.035 10.9761L124.529 14.4648L121.589 14.2778C121.451 14.2691 121.314 14.2983 121.208 14.3589C121.102 14.4195 121.035 14.5065 121.022 14.6009C121.01 14.6953 121.052 14.7892 121.141 14.8621C121.229 14.9349 121.356 14.9807 121.494 14.9894L125.54 15.2481C125.571 15.2483 125.601 15.2471 125.631 15.2442C125.653 15.2341 125.666 15.2281 125.708 15.2386C125.77 15.2287 125.83 15.2111 125.883 15.1864C125.935 15.1613 125.981 15.1296 126.017 15.0931C126.038 15.083 126.051 15.077 126.052 15.0463C126.066 15.028 126.079 15.009 126.09 14.9895L127.19 12.3066C127.211 12.2561 127.215 12.2031 127.203 12.1514C127.19 12.0997 127.161 12.0505 127.118 12.0074C127.049 11.9385 126.948 11.8884 126.831 11.8656C126.765 11.8527 126.696 11.8489 126.628 11.8544C126.56 11.8598 126.494 11.8744 126.435 11.8974C126.375 11.9203 126.322 11.951 126.28 11.9879C126.238 12.0247 126.206 12.067 126.188 12.1122L125.387 14.0608L121.893 10.572C121.814 10.494 121.694 10.4405 121.559 10.4232C121.423 10.4059 121.283 10.4263 121.169 10.4799C121.055 10.5335 120.977 10.6158 120.952 10.7089C120.927 10.802 120.957 10.8981 121.035 10.9761Z" fill="white"/>
</svg>
