<svg width="12" height="12" viewBox="0 0 12 12" fill="none" xmlns="http://www.w3.org/2000/svg">
<path d="M5.93018 9.21002C6.97872 9.21002 7.98432 8.82189 8.72575 8.131C9.46718 7.44012 9.88371 6.50308 9.88371 5.52602C9.88371 4.54896 9.46718 3.61192 8.72575 2.92104C7.98432 2.23016 6.97872 1.84202 5.93018 1.84202C4.88164 1.84202 3.87605 2.23016 3.13462 2.92104C2.39319 3.61192 1.97666 4.54896 1.97666 5.52602C1.97666 6.50308 2.39319 7.44012 3.13462 8.131C3.87605 8.82189 4.88164 9.21002 5.93018 9.21002ZM5.93018 0.921021C6.57916 0.921021 7.22179 1.04013 7.82137 1.27156C8.42095 1.50298 8.96574 1.84218 9.42464 2.26979C9.88354 2.69741 10.2476 3.20506 10.4959 3.76376C10.7443 4.32247 10.8721 4.92128 10.8721 5.52602C10.8721 6.74734 10.3514 7.91864 9.42464 8.78225C8.49785 9.64585 7.24086 10.131 5.93018 10.131C3.19731 10.131 0.988281 8.05877 0.988281 5.52602C0.988281 4.3047 1.50894 3.1334 2.43573 2.26979C3.36252 1.40619 4.61951 0.921021 5.93018 0.921021V0.921021ZM6.17728 3.22352V5.64115L8.40114 6.87068L8.03049 7.4371L5.43599 5.98652V3.22352H6.17728Z" fill="#7B809A"/>
</svg>
