<svg width="16" height="18" viewBox="0 0 16 18" fill="none" xmlns="http://www.w3.org/2000/svg">
<path fill-rule="evenodd" clip-rule="evenodd" d="M6.26248 9.2012L3.27178 8.06204C1.2068 7.27549 0.174316 6.88221 0.174316 6.19303C0.174316 5.50384 1.2068 5.11057 3.27178 4.32402L12.3952 0.848909C14.0338 0.224755 14.8531 -0.0873218 15.3084 0.332845C15.7636 0.753012 15.5181 1.59467 15.0271 3.27799L12.1438 13.1622L12.1438 13.1623C11.3638 15.8362 10.9738 17.1732 10.2238 17.1732C9.47383 17.1732 9.08382 15.8362 8.30382 13.1622L7.59131 10.7197L11.9645 5.72239C12.3283 5.30678 12.2862 4.67502 11.8706 4.31131C11.455 3.94759 10.8232 3.98967 10.4595 4.40528L6.26248 9.2012Z" fill="#222222"/>
</svg>
