<svg width="25" height="24" viewBox="0 0 25 24" fill="none" xmlns="http://www.w3.org/2000/svg">
<path fill-rule="evenodd" clip-rule="evenodd" d="M10.1992 12.3002L3.84949 10.3663C1.28316 9.58463 0 9.19382 0 8.45304C0 7.71225 1.28316 7.32144 3.84949 6.53981L21.2185 1.24968C22.8917 0.740074 23.7283 0.485271 24.1538 0.93445C24.5793 1.38363 24.2796 2.2052 23.6801 3.84834L17.771 20.046C16.9849 22.201 16.5918 23.2785 15.8922 23.2785C15.1925 23.2785 14.7994 22.201 14.0133 20.046L11.6817 13.6548L18.0937 7.796C18.5015 7.42346 18.53 6.79094 18.1574 6.38322C17.7849 5.9755 17.1524 5.94699 16.7447 6.31952L10.1992 12.3002Z" fill="#222222"/>
</svg>
