<svg width="31" height="20" viewBox="0 0 31 20" fill="none" xmlns="http://www.w3.org/2000/svg">
<path d="M8.83378 9.05536C8.41485 9.36721 8.09011 9.86376 8.09011 10.47C8.09011 11.0762 8.41485 11.5727 8.83378 11.8846C9.24732 12.1924 9.76014 12.3361 10.2537 12.3361H19.7255L19.7255 16.9647C19.7255 16.965 19.7255 16.9654 19.7255 16.9657C19.7246 17.3934 19.497 17.8879 18.9344 18.3067C18.366 18.7298 17.5474 18.997 16.6523 18.9977H5.01851C4.12349 18.997 3.30488 18.7298 2.73649 18.3067C2.17371 17.8877 1.94614 17.3931 1.94531 16.9653V3.97464C1.94614 3.54688 2.17371 3.05222 2.73649 2.63328C3.3048 2.21022 4.12327 1.94304 5.01815 1.94226H16.0714C16.9922 1.94226 17.9748 2.21957 18.7022 2.6625C19.4583 3.123 19.7255 3.61408 19.7255 3.9738V8.60381H10.2537C9.76014 8.60381 9.24732 8.74751 8.83378 9.05536Z" stroke="white" stroke-width="2"/>
<mask id="path-2-inside-1_82_1373" fill="white">
<path d="M30.2941 9.81116L24.7993 5.27415C24.5915 5.11116 24.3148 5.02164 24.0283 5.02467C23.7417 5.0277 23.4679 5.12304 23.2653 5.29037C23.0626 5.4577 22.9472 5.68377 22.9435 5.92038C22.9398 6.157 23.0482 6.38543 23.2456 6.55699L26.864 9.54518H20.7256V11.36H26.864L23.2456 14.3482C23.1393 14.4316 23.0542 14.5317 22.9955 14.6427C22.9368 14.7537 22.9056 14.8733 22.9037 14.9944C22.9018 15.1155 22.9293 15.2357 22.9846 15.3479C23.0399 15.4601 23.1218 15.562 23.2255 15.6476C23.3292 15.7333 23.4526 15.8009 23.5885 15.8465C23.7244 15.8922 23.87 15.9149 24.0166 15.9133C24.1633 15.9118 24.3081 15.886 24.4425 15.8375C24.577 15.789 24.6983 15.7188 24.7993 15.631L30.2941 11.094C30.5 10.9238 30.6157 10.6931 30.6157 10.4526C30.6157 10.212 30.5 9.98131 30.2941 9.81116Z"/>
</mask>
<path d="M30.2941 9.81116L31.568 8.26934L31.5675 8.26893L30.2941 9.81116ZM24.7993 5.27415L26.0727 3.73193L26.0534 3.716L26.0337 3.70055L24.7993 5.27415ZM23.2456 6.55699L21.9337 8.06655L21.9527 8.08306L21.9721 8.09909L23.2456 6.55699ZM26.864 9.54518V11.5452H32.4265L28.1375 8.00307L26.864 9.54518ZM20.7256 9.54518V7.54518H18.7256V9.54518H20.7256ZM20.7256 11.36H18.7256V13.36H20.7256V11.36ZM26.864 11.36L28.1375 12.9021L32.4265 9.35998H26.864V11.36ZM23.2456 14.3482L24.4801 15.9218L24.4998 15.9063L24.5192 15.8903L23.2456 14.3482ZM24.7993 15.631L23.5259 14.0888L23.5064 14.1049L23.4873 14.1214L24.7993 15.631ZM30.2941 11.094L31.5675 12.6362L31.568 12.6358L30.2941 11.094ZM31.5675 8.26893L26.0727 3.73193L23.5259 6.81637L29.0207 11.3534L31.5675 8.26893ZM26.0337 3.70055C25.4368 3.23229 24.7071 3.01738 24.0071 3.02478L24.0494 7.02456C23.9226 7.0259 23.7463 6.99004 23.5649 6.84775L26.0337 3.70055ZM24.0071 3.02478C23.3073 3.03218 22.58 3.26257 21.9919 3.74815L24.5387 6.83259C24.3559 6.98352 24.1761 7.02322 24.0494 7.02456L24.0071 3.02478ZM21.9919 3.74815C21.3936 4.24211 20.9576 4.9978 20.9437 5.88937L24.9432 5.95139C24.9368 6.36973 24.7316 6.67328 24.5387 6.83259L21.9919 3.74815ZM20.9437 5.88937C20.9299 6.78243 21.3439 7.55397 21.9337 8.06655L24.5576 5.04743C24.7526 5.2169 24.9498 5.53157 24.9432 5.95139L20.9437 5.88937ZM21.9721 8.09909L25.5904 11.0873L28.1375 8.00307L24.5192 5.01489L21.9721 8.09909ZM26.864 7.54518H20.7256V11.5452H26.864V7.54518ZM18.7256 9.54518V11.36H22.7256V9.54518H18.7256ZM20.7256 13.36H26.864V9.35998H20.7256V13.36ZM25.5904 9.81787L21.9721 12.8061L24.5192 15.8903L28.1375 12.9021L25.5904 9.81787ZM22.0112 12.7746C21.7014 13.0176 21.4274 13.3301 21.2277 13.7073L24.7633 15.5781C24.6811 15.7334 24.5772 15.8456 24.4801 15.9218L22.0112 12.7746ZM21.2277 13.7073C21.027 14.0867 20.9109 14.515 20.9039 14.9634L24.9035 15.0254C24.9003 15.2316 24.8466 15.4207 24.7633 15.5781L21.2277 13.7073ZM20.9039 14.9634C20.897 15.4119 20.9998 15.8447 21.1905 16.2317L24.7787 14.4641C24.8588 14.6267 24.9067 14.8191 24.9035 15.0254L20.9039 14.9634ZM21.1905 16.2317C21.38 16.6165 21.6469 16.9379 21.9521 17.1899L24.4989 14.1054C24.5966 14.1861 24.6997 14.3037 24.7787 14.4641L21.1905 16.2317ZM21.9521 17.1899C22.2567 17.4414 22.5992 17.6241 22.9518 17.7425L24.2252 13.9506C24.3061 13.9778 24.4017 14.0252 24.4989 14.1054L21.9521 17.1899ZM22.9518 17.7425C23.3046 17.861 23.6729 17.9171 24.0378 17.9132L23.9955 13.9134C24.0671 13.9127 24.1442 13.9234 24.2252 13.9506L22.9518 17.7425ZM24.0378 17.9132C24.4027 17.9094 24.7702 17.8455 25.1212 17.7188L23.7639 13.9562C23.846 13.9265 23.9239 13.9142 23.9955 13.9134L24.0378 17.9132ZM25.1212 17.7188C25.472 17.5923 25.8116 17.401 26.1112 17.1406L23.4873 14.1214C23.5849 14.0366 23.6819 13.9858 23.7639 13.9562L25.1212 17.7188ZM26.0727 17.1732L31.5675 12.6362L29.0207 9.55177L23.5259 14.0888L26.0727 17.1732ZM31.568 12.6358C32.1763 12.1332 32.6157 11.3604 32.6157 10.4526H28.6157C28.6157 10.0259 28.8238 9.71448 29.0202 9.55218L31.568 12.6358ZM32.6157 10.4526C32.6157 9.54476 32.1763 8.77194 31.568 8.26934L29.0202 11.353C28.8238 11.1907 28.6157 10.8793 28.6157 10.4526H32.6157Z" fill="white" mask="url(#path-2-inside-1_82_1373)"/>
</svg>
