<svg width="25" height="25" viewBox="0 0 25 25" fill="none" xmlns="http://www.w3.org/2000/svg">
<path d="M7.22077 15.1119C8.51759 15.1119 9.56888 16.1643 9.56888 17.4975V21.6713C9.56888 22.9938 8.51607 24.0556 7.22077 24.0556H3.0981C1.81309 24.0556 0.75 22.9918 0.75 21.6713V17.4975C0.75 16.1662 1.81157 15.1119 3.0981 15.1119H7.22077ZM21.2965 15.1119C22.5831 15.1119 23.6446 16.1662 23.6446 17.4975V21.6713C23.6446 22.9918 22.5815 24.0556 21.2965 24.0556H17.1739C15.8786 24.0556 14.8258 22.9938 14.8258 21.6713V17.4975C14.8258 16.1643 15.877 15.1119 17.1739 15.1119H21.2965ZM7.22077 1.06897C8.51588 1.06897 9.56888 2.13062 9.56888 3.45453V7.62834C9.56888 8.96116 8.51797 10.0127 7.22077 10.0127H3.0981C1.81119 10.0127 0.75 8.95923 0.75 7.62834V3.45453C0.75 2.13255 1.81328 1.06897 3.0981 1.06897H7.22077ZM21.2965 1.06897C22.5813 1.06897 23.6446 2.13255 23.6446 3.45453V7.62834C23.6446 8.95922 22.5834 10.0127 21.2965 10.0127H17.1739C15.8767 10.0127 14.8258 8.96116 14.8258 7.62834V3.45453C14.8258 2.13062 15.8787 1.06897 17.1739 1.06897H21.2965Z" stroke="white" stroke-width="1.5"/>
</svg>
