<svg width="26" height="29" viewBox="0 0 26 29" fill="none" xmlns="http://www.w3.org/2000/svg">
<path d="M13.8465 17.1047C16.2111 16.1915 20.4565 17.001 22.9595 17.6215C23.772 17.8229 24.5158 17.0126 24.2166 16.2293L18.5654 1.43297C18.2662 0.649657 17.1742 0.548342 16.7047 1.24484C15.2582 3.39067 12.6432 6.84967 10.2785 7.7629M13.8465 17.1047L10.2785 7.7629M13.8465 17.1047L8.01619 19.3564C5.44059 20.3511 2.9555 20.1198 1.56796 16.4868C0.180422 12.8539 1.87263 11.0093 4.44822 10.0146L10.2785 7.7629M6.85013 19.8067L13.4578 27.279C13.7336 27.5909 14.1739 27.6981 14.5627 27.5479L17.2344 26.5161C17.8857 26.2645 18.0877 25.4389 17.6258 24.9165L11.5144 18.0054M22.729 12.3343C24.6611 11.5881 25.6282 9.41503 24.8892 7.4801C24.1502 5.54518 21.9852 4.58172 20.053 5.32793M15.6305 21.7756C16.7965 21.3253 18.6827 19.2569 17.7907 16.9214" stroke="white" stroke-width="1.5"/>
</svg>
