<svg width="38" height="39" viewBox="0 0 38 39" fill="none" xmlns="http://www.w3.org/2000/svg">
<g clip-path="url(#clip0_82_1416)">
<path d="M16.3479 7.15422C17.0224 4.37389 20.9776 4.37389 21.6521 7.15422C21.7533 7.5719 21.9517 7.95979 22.2311 8.2863C22.5106 8.61282 22.8632 8.86874 23.2602 9.03323C23.6572 9.19773 24.0875 9.26615 24.516 9.23293C24.9445 9.19971 25.3591 9.06578 25.726 8.84205C28.1691 7.35372 30.9668 10.1499 29.4785 12.5946C29.2551 12.9613 29.1214 13.3757 29.0882 13.8039C29.0551 14.2321 29.1234 14.662 29.2878 15.0588C29.4521 15.4556 29.7077 15.8081 30.0338 16.0875C30.36 16.3669 30.7474 16.5654 31.1648 16.6669C33.9451 17.3414 33.9451 21.2966 31.1648 21.9711C30.7471 22.0723 30.3592 22.2707 30.0327 22.5501C29.7062 22.8295 29.4502 23.1821 29.2857 23.5792C29.1212 23.9762 29.0528 24.4065 29.086 24.835C29.1193 25.2634 29.2532 25.678 29.4769 26.045C30.9653 28.4881 28.1691 31.2858 25.7244 29.7975C25.3576 29.5741 24.9433 29.4403 24.5151 29.4072C24.0869 29.3741 23.6569 29.4424 23.2601 29.6067C22.8633 29.771 22.5109 30.0266 22.2315 30.3528C21.9521 30.6789 21.7536 31.0664 21.6521 31.4837C20.9776 34.2641 17.0224 34.2641 16.3479 31.4837C16.2467 31.066 16.0483 30.6782 15.7689 30.3516C15.4894 30.0251 15.1368 29.7692 14.7398 29.6047C14.3428 29.4402 13.9125 29.3718 13.484 29.405C13.0555 29.4382 12.6409 29.5722 12.274 29.7959C9.83092 31.2842 7.03317 28.4881 8.5215 26.0434C8.74491 25.6766 8.87862 25.2623 8.91177 24.8341C8.94491 24.4059 8.87655 23.9759 8.71225 23.5791C8.54794 23.1823 8.29233 22.8299 7.96618 22.5505C7.64004 22.2711 7.25256 22.0725 6.83525 21.9711C4.05492 21.2966 4.05492 17.3414 6.83525 16.6669C7.25293 16.5657 7.64082 16.3673 7.96733 16.0878C8.29385 15.8084 8.54977 15.4558 8.71426 15.0588C8.87876 14.6617 8.94718 14.2315 8.91396 13.803C8.88074 13.3745 8.74681 12.9599 8.52308 12.593C7.03475 10.1499 9.83092 7.35214 12.2756 8.84047C13.8589 9.80314 15.9109 8.9513 16.3479 7.15422Z" stroke="white" stroke-width="2" stroke-linecap="round" stroke-linejoin="round"/>
<path d="M19 24.069C21.6234 24.069 23.75 21.9423 23.75 19.319C23.75 16.6956 21.6234 14.569 19 14.569C16.3766 14.569 14.25 16.6956 14.25 19.319C14.25 21.9423 16.3766 24.069 19 24.069Z" stroke="white" stroke-width="2" stroke-linecap="round" stroke-linejoin="round"/>
</g>
<defs>
<clipPath id="clip0_82_1416">
<rect width="38" height="38" fill="white" transform="translate(0 0.31897)"/>
</clipPath>
</defs>
</svg>
