<svg width="27" height="20" viewBox="0 0 27 20" fill="none" xmlns="http://www.w3.org/2000/svg">
<g clip-path="url(#clip0_82_1423)">
<path d="M13.1868 0.635181L13.7589 0.152916C13.4297 -0.0509719 12.9439 -0.0509719 12.6147 0.152916L13.1868 0.635181ZM0.879121 8.25735L0.306996 7.77508L0 7.9652V8.25735H0.879121ZM9.67033 18.4202V19.0554C10.1559 19.0554 10.5495 18.771 10.5495 18.4202H9.67033ZM16.7033 18.4202H15.8242C15.8242 18.771 16.2178 19.0554 16.7033 19.0554V18.4202ZM25.4945 8.25735H26.3736V7.9652L26.0666 7.77508L25.4945 8.25735ZM2.63736 19.0554H9.67033V17.7851H2.63736V19.0554ZM26.0666 7.77508L13.7589 0.152916L12.6147 1.11745L24.9224 8.73962L26.0666 7.77508ZM12.6147 0.152916L0.306996 7.77508L1.45125 8.73962L13.7589 1.11745L12.6147 0.152916ZM10.5495 18.4202V14.6092H8.79121V18.4202H10.5495ZM15.8242 14.6092V18.4202H17.5824V14.6092H15.8242ZM16.7033 19.0554H23.7363V17.7851H16.7033V19.0554ZM26.3736 17.1499V8.25735H24.6154V17.1499H26.3736ZM0 8.25735V17.1499H1.75824V8.25735H0ZM13.1868 12.7036C14.6434 12.7036 15.8242 13.5568 15.8242 14.6092H17.5824C17.5824 12.8552 15.6144 11.4333 13.1868 11.4333V12.7036ZM13.1868 11.4333C10.7592 11.4333 8.79121 12.8552 8.79121 14.6092H10.5495C10.5495 13.5568 11.7302 12.7036 13.1868 12.7036V11.4333ZM23.7363 19.0554C25.1928 19.0554 26.3736 18.2022 26.3736 17.1499H24.6154C24.6154 17.5006 24.2217 17.7851 23.7363 17.7851V19.0554ZM2.63736 17.7851C2.15184 17.7851 1.75824 17.5006 1.75824 17.1499H0C0 18.2022 1.18079 19.0554 2.63736 19.0554V17.7851Z" fill="white"/>
</g>
<defs>
<clipPath id="clip0_82_1423">
<rect width="26.3736" height="19.0554" fill="white"/>
</clipPath>
</defs>
</svg>
