<svg width="24" height="29" viewBox="0 0 24 29" fill="none" xmlns="http://www.w3.org/2000/svg">
<path d="M14.2112 24.5737C14.2112 24.8288 14.1225 25.0733 13.9645 25.2536C13.8066 25.434 13.5924 25.5353 13.369 25.5353H6.63199C6.40864 25.5353 6.19444 25.434 6.03651 25.2536C5.87858 25.0733 5.78985 24.8288 5.78985 24.5737C5.78985 24.3187 5.87858 24.0742 6.03651 23.8938C6.19444 23.7135 6.40864 23.6122 6.63199 23.6122H13.369C13.5924 23.6122 13.8066 23.7135 13.9645 23.8938C14.1225 24.0742 14.2112 24.3187 14.2112 24.5737ZM19.7798 20.7276C19.6324 21.0215 19.4192 21.2655 19.1621 21.4344C18.905 21.6034 18.6132 21.6913 18.3166 21.6891H1.68446C1.38776 21.6892 1.09631 21.5997 0.839621 21.4298C0.582928 21.2599 0.370095 21.0156 0.222661 20.7217C0.0752266 20.4277 -0.00157638 20.0944 2.45244e-05 19.7557C0.00162542 19.4169 0.0815734 19.0846 0.231777 18.7925C0.85285 17.5665 1.60024 15.2348 1.60024 11.1122V10.1507C1.59886 8.88953 1.81504 7.64044 2.23645 6.4747C2.65785 5.30896 3.27623 4.24941 4.05626 3.35654C4.8363 2.46366 5.76273 1.75496 6.78264 1.27089C7.80256 0.786816 8.896 0.536856 10.0005 0.535278H10.0637C14.6638 0.571336 18.4008 4.93432 18.4008 10.2588V11.1122C18.4008 15.2348 19.1482 17.5665 19.7693 18.7925C19.9186 19.086 19.9981 19.419 20 19.7584C20.0018 20.0979 19.9259 20.432 19.7798 20.7276ZM18.3166 19.766C17.5902 18.3237 16.7165 15.6675 16.7165 11.1122V10.2588C16.7165 5.99201 13.727 2.48239 10.0532 2.45836H10.0005C9.11678 2.45835 8.24174 2.65749 7.42554 3.04436C6.60934 3.43123 5.86804 3.99822 5.24412 4.71283C4.62021 5.42744 4.12595 6.27563 3.78968 7.20876C3.45341 8.14189 3.28174 9.14163 3.28451 10.1507V11.1122C3.28451 15.6675 2.4108 18.3237 1.68446 19.766H18.3166Z" fill="white"/>
<path d="M9.92567 28.1027C10.6536 28.102 11.3678 27.8534 11.9925 27.3834C12.6172 26.9133 13.1291 26.2393 13.474 25.4329C13.4902 25.3943 13.4982 25.351 13.4973 25.3073C13.4963 25.2636 13.4863 25.2209 13.4684 25.1835C13.4505 25.1461 13.4251 25.1151 13.3948 25.0936C13.3646 25.0721 13.3304 25.0609 13.2957 25.0609H6.55669C6.5219 25.0608 6.48766 25.0719 6.45733 25.0934C6.42699 25.1148 6.40158 25.1458 6.38357 25.1832C6.36556 25.2207 6.35557 25.2634 6.35458 25.3071C6.35358 25.3509 6.3616 25.3942 6.37787 25.4329C6.72269 26.2392 7.23454 26.9132 7.85915 27.3832C8.48376 27.8532 9.19784 28.1019 9.92567 28.1027Z" fill="white"/>
<g filter="url(#filter0_d_82_1406)">
<ellipse cx="3.00044" cy="3.01094" rx="3.00044" ry="3.01094" transform="matrix(0.980415 -0.196941 0.195513 0.980701 12.9258 6.19421)" fill="#FF0000"/>
<path d="M18.9076 8.06369C19.1791 9.4253 18.2994 10.747 16.9471 11.0186C15.5948 11.2903 14.2761 10.4102 14.0047 9.04857C13.7332 7.68697 14.6129 6.3653 15.9652 6.09365C17.3175 5.82201 18.6362 6.70209 18.9076 8.06369Z" stroke="white"/>
</g>
<defs>
<filter id="filter0_d_82_1406" x="9.45557" y="2.54419" width="14.001" height="14.0239" filterUnits="userSpaceOnUse" color-interpolation-filters="sRGB">
<feFlood flood-opacity="0" result="BackgroundImageFix"/>
<feColorMatrix in="SourceAlpha" type="matrix" values="0 0 0 0 0 0 0 0 0 0 0 0 0 0 0 0 0 0 127 0" result="hardAlpha"/>
<feOffset dy="1"/>
<feGaussianBlur stdDeviation="2"/>
<feComposite in2="hardAlpha" operator="out"/>
<feColorMatrix type="matrix" values="0 0 0 0 0 0 0 0 0 0 0 0 0 0 0 0 0 0 0.13 0"/>
<feBlend mode="normal" in2="BackgroundImageFix" result="effect1_dropShadow_82_1406"/>
<feBlend mode="normal" in="SourceGraphic" in2="effect1_dropShadow_82_1406" result="shape"/>
</filter>
</defs>
</svg>
