<svg width="14" height="11" viewBox="0 0 14 11" fill="none" xmlns="http://www.w3.org/2000/svg">
<path d="M4.32416 1.15756C4.0948 1.15756 3.87482 1.21846 3.71264 1.32687C3.55045 1.43528 3.45933 1.58231 3.45933 1.73562C3.45933 1.88894 3.55045 2.03597 3.71264 2.14438C3.87482 2.25279 4.0948 2.31369 4.32416 2.31369C4.55353 2.31369 4.77351 2.25279 4.93569 2.14438C5.09788 2.03597 5.189 1.88894 5.189 1.73562C5.189 1.58231 5.09788 1.43528 4.93569 1.32687C4.77351 1.21846 4.55353 1.15756 4.32416 1.15756ZM1.87669 1.15756C2.05536 0.819077 2.38671 0.525976 2.82506 0.318655C3.26341 0.111334 3.78718 0 4.32416 0C4.86115 0 5.38492 0.111334 5.82327 0.318655C6.26162 0.525976 6.59297 0.819077 6.77164 1.15756H12.9725C13.2019 1.15756 13.4218 1.21846 13.584 1.32687C13.7462 1.43528 13.8373 1.58231 13.8373 1.73562C13.8373 1.88894 13.7462 2.03597 13.584 2.14438C13.4218 2.25279 13.2019 2.31369 12.9725 2.31369H6.77164C6.59297 2.65217 6.26162 2.94527 5.82327 3.15259C5.38492 3.35992 4.86115 3.47125 4.32416 3.47125C3.78718 3.47125 3.26341 3.35992 2.82506 3.15259C2.38671 2.94527 2.05536 2.65217 1.87669 2.31369H0.864833C0.635465 2.31369 0.415492 2.25279 0.253304 2.14438C0.0911162 2.03597 0 1.88894 0 1.73562C0 1.58231 0.0911162 1.43528 0.253304 1.32687C0.415492 1.21846 0.635465 1.15756 0.864833 1.15756H1.87669ZM9.51316 4.62597C9.28379 4.62597 9.06382 4.68687 8.90163 4.79528C8.73945 4.90369 8.64833 5.05073 8.64833 5.20404C8.64833 5.35735 8.73945 5.50439 8.90163 5.6128C9.06382 5.72121 9.28379 5.78211 9.51316 5.78211C9.74253 5.78211 9.9625 5.72121 10.1247 5.6128C10.2869 5.50439 10.378 5.35735 10.378 5.20404C10.378 5.05073 10.2869 4.90369 10.1247 4.79528C9.9625 4.68687 9.74253 4.62597 9.51316 4.62597ZM7.06569 4.62597C7.24436 4.28749 7.57571 3.99439 8.01406 3.78707C8.45241 3.57975 8.97618 3.46842 9.51316 3.46842C10.0501 3.46842 10.5739 3.57975 11.0123 3.78707C11.4506 3.99439 11.782 4.28749 11.9606 4.62597H12.9725C13.2019 4.62597 13.4218 4.68687 13.584 4.79528C13.7462 4.90369 13.8373 5.05073 13.8373 5.20404C13.8373 5.35735 13.7462 5.50439 13.584 5.6128C13.4218 5.72121 13.2019 5.78211 12.9725 5.78211H11.9606C11.782 6.12059 11.4506 6.41369 11.0123 6.62101C10.5739 6.82833 10.0501 6.93966 9.51316 6.93966C8.97618 6.93966 8.45241 6.82833 8.01406 6.62101C7.57571 6.41369 7.24436 6.12059 7.06569 5.78211H0.864833C0.635465 5.78211 0.415492 5.72121 0.253304 5.6128C0.0911162 5.50439 0 5.35735 0 5.20404C0 5.05073 0.0911162 4.90369 0.253304 4.79528C0.415492 4.68687 0.635465 4.62597 0.864833 4.62597H7.06569ZM4.32416 8.09439C4.0948 8.09439 3.87482 8.15529 3.71264 8.2637C3.55045 8.37211 3.45933 8.51914 3.45933 8.67246C3.45933 8.82577 3.55045 8.9728 3.71264 9.08121C3.87482 9.18962 4.0948 9.25053 4.32416 9.25053C4.55353 9.25053 4.77351 9.18962 4.93569 9.08121C5.09788 8.9728 5.189 8.82577 5.189 8.67246C5.189 8.51914 5.09788 8.37211 4.93569 8.2637C4.77351 8.15529 4.55353 8.09439 4.32416 8.09439ZM1.87669 8.09439C2.05536 7.75591 2.38671 7.46281 2.82506 7.25549C3.26341 7.04816 3.78718 6.93683 4.32416 6.93683C4.86115 6.93683 5.38492 7.04816 5.82327 7.25549C6.26162 7.46281 6.59297 7.75591 6.77164 8.09439H12.9725C13.2019 8.09439 13.4218 8.15529 13.584 8.2637C13.7462 8.37211 13.8373 8.51914 13.8373 8.67246C13.8373 8.82577 13.7462 8.9728 13.584 9.08121C13.4218 9.18962 13.2019 9.25053 12.9725 9.25053H6.77164C6.59297 9.589 6.26162 9.8821 5.82327 10.0894C5.38492 10.2967 4.86115 10.4081 4.32416 10.4081C3.78718 10.4081 3.26341 10.2967 2.82506 10.0894C2.38671 9.8821 2.05536 9.589 1.87669 9.25053H0.864833C0.635465 9.25053 0.415492 9.18962 0.253304 9.08121C0.0911162 8.9728 0 8.82577 0 8.67246C0 8.51914 0.0911162 8.37211 0.253304 8.2637C0.415492 8.15529 0.635465 8.09439 0.864833 8.09439H1.87669Z" fill="#0F1112"/>
</svg>
