<svg width="23" height="28" viewBox="0 0 23 28" fill="none" xmlns="http://www.w3.org/2000/svg">
<path d="M22.6994 5.82546L17.4721 0.618393C17.273 0.424979 17.0054 0.317424 16.7273 0.318987H6.27272C5.71818 0.318987 5.18635 0.538427 4.79423 0.929033C4.40211 1.31964 4.18182 1.84941 4.18182 2.40181V4.48464H2.09091C1.53636 4.48464 1.00453 4.70408 0.612413 5.09469C0.220291 5.48529 0 6.01507 0 6.56747V25.3129C0 25.8653 0.220291 26.3951 0.612413 26.7857C1.00453 27.1763 1.53636 27.3957 2.09091 27.3957H16.7273C17.2818 27.3957 17.8136 27.1763 18.2058 26.7857C18.5979 26.3951 18.8182 25.8653 18.8182 25.3129V23.2301H20.9091C21.4636 23.2301 21.9954 23.0107 22.3876 22.62C22.7797 22.2294 23 21.6997 23 21.1473V6.56747C23.0016 6.2904 22.8936 6.02386 22.6994 5.82546V5.82546ZM16.7273 25.3129H2.09091V6.56747H12.1142L16.7273 11.1627V25.3129ZM20.9091 21.1473H18.8182V10.7331C18.8197 10.4561 18.7118 10.1895 18.5176 9.99112L13.2903 4.78405C13.0912 4.59063 12.8236 4.48308 12.5454 4.48464H6.27272V2.40181H16.296L20.9091 6.99705V21.1473ZM13.5909 16.9816C13.5909 17.2578 13.4808 17.5227 13.2847 17.718C13.0886 17.9133 12.8227 18.023 12.5454 18.023H6.27272C5.99545 18.023 5.72954 17.9133 5.53348 17.718C5.33741 17.5227 5.22727 17.2578 5.22727 16.9816C5.22727 16.7054 5.33741 16.4405 5.53348 16.2452C5.72954 16.0499 5.99545 15.9402 6.27272 15.9402H12.5454C12.8227 15.9402 13.0886 16.0499 13.2847 16.2452C13.4808 16.4405 13.5909 16.7054 13.5909 16.9816ZM13.5909 21.1473C13.5909 21.4235 13.4808 21.6884 13.2847 21.8837C13.0886 22.079 12.8227 22.1887 12.5454 22.1887H6.27272C5.99545 22.1887 5.72954 22.079 5.53348 21.8837C5.33741 21.6884 5.22727 21.4235 5.22727 21.1473C5.22727 20.8711 5.33741 20.6062 5.53348 20.4109C5.72954 20.2156 5.99545 20.1058 6.27272 20.1058H12.5454C12.8227 20.1058 13.0886 20.2156 13.2847 20.4109C13.4808 20.6062 13.5909 20.8711 13.5909 21.1473Z" fill="white"/>
</svg>
